{
	"asset":{
		"generator":"Khronos glTF Blender I/O v4.4.56",
		"version":"2.0"
	},
	"extensionsUsed":[
		"KHR_materials_emissive_strength",
		"KHR_materials_specular"
	],
	"scene":0,
	"scenes":[
		{
			"name":"Scene",
			"nodes":[
				0,
				1,
				2,
				3,
				4
			]
		}
	],
	"nodes":[
		{
			"mesh":0,
			"name":"Plane",
			"scale":[
				3,
				3,
				3
			]
		},
		{
			"mesh":1,
			"name":"Suzanne",
			"rotation":[
				-0.262020081281662,
				-0.02951781079173088,
				0.0005405572010204196,
				0.964610755443573
			],
			"scale":[
				0.2943882942199707,
				0.2943882942199707,
				0.2943882942199707
			],
			"translation":[
				0.7828500270843506,
				0.5898499488830566,
				1.4707893133163452
			]
		},
		{
			"mesh":2,
			"name":"Suzanne.001",
			"rotation":[
				0.2291363775730133,
				0.24351640045642853,
				-0.12420373409986496,
				0.9342214465141296
			],
			"scale":[
				0.2943882942199707,
				0.2943882942199707,
				0.2943882942199707
			],
			"translation":[
				1.7355948686599731,
				1.0228873491287231,
				-1.574128270149231
			]
		},
		{
			"mesh":3,
			"name":"Suzanne.002",
			"rotation":[
				-0.3510519862174988,
				-0.16779959201812744,
				0.20660755038261414,
				0.8977299928665161
			],
			"scale":[
				0.2943882942199707,
				0.2943882942199707,
				0.2943882942199707
			],
			"translation":[
				-1.5884289741516113,
				0.4657965898513794,
				0
			]
		},
		{
			"mesh":4,
			"name":"Suzanne.003",
			"rotation":[
				-0.10496195405721664,
				-0.20241187512874603,
				-0.014258930459618568,
				0.9735549688339233
			],
			"scale":[
				0.2943882942199707,
				0.2943882644176483,
				0.2943882942199707
			],
			"translation":[
				-1.2841148376464844,
				0.728421688079834,
				-1.1384975910186768
			]
		}
	],
	"materials":[
		{
			"doubleSided":true,
			"extensions":{
				"KHR_materials_specular":{
					"specularFactor":0
				}
			},
			"name":"Material",
			"pbrMetallicRoughness":{
				"baseColorFactor":[
					0.800000011920929,
					0.800000011920929,
					0.800000011920929,
					1
				],
				"metallicFactor":0,
				"roughnessFactor":0.5
			}
		},
		{
			"doubleSided":true,
			"emissiveFactor":[
				1,
				0,
				0.28554582595825195
			],
			"extensions":{
				"KHR_materials_emissive_strength":{
					"emissiveStrength":5
				}
			},
			"name":"Material.003",
			"pbrMetallicRoughness":{
				"baseColorFactor":[
					0,
					0,
					0,
					1
				]
			}
		},
		{
			"doubleSided":true,
			"emissiveFactor":[
				0.002360209822654724,
				1,
				0
			],
			"extensions":{
				"KHR_materials_emissive_strength":{
					"emissiveStrength":5
				}
			},
			"name":"Material.002",
			"pbrMetallicRoughness":{
				"baseColorFactor":[
					0,
					0,
					0,
					1
				]
			}
		},
		{
			"doubleSided":true,
			"emissiveFactor":[
				0,
				0.5365785360336304,
				1
			],
			"extensions":{
				"KHR_materials_emissive_strength":{
					"emissiveStrength":5
				}
			},
			"name":"Material.001",
			"pbrMetallicRoughness":{
				"baseColorFactor":[
					0,
					0,
					0,
					1
				]
			}
		},
		{
			"doubleSided":true,
			"emissiveFactor":[
				1,
				0.5852758288383484,
				0
			],
			"extensions":{
				"KHR_materials_emissive_strength":{
					"emissiveStrength":5
				}
			},
			"name":"Material.004",
			"pbrMetallicRoughness":{
				"baseColorFactor":[
					0,
					0,
					0,
					1
				]
			}
		}
	],
	"meshes":[
		{
			"name":"Plane",
			"primitives":[
				{
					"attributes":{
						"POSITION":0,
						"NORMAL":1,
						"TEXCOORD_0":2
					},
					"indices":3,
					"material":0
				}
			]
		},
		{
			"name":"Suzanne",
			"primitives":[
				{
					"attributes":{
						"POSITION":4,
						"NORMAL":5,
						"TEXCOORD_0":6
					},
					"indices":7,
					"material":1
				}
			]
		},
		{
			"name":"Suzanne.001",
			"primitives":[
				{
					"attributes":{
						"POSITION":8,
						"NORMAL":9,
						"TEXCOORD_0":10
					},
					"indices":7,
					"material":2
				}
			]
		},
		{
			"name":"Suzanne.002",
			"primitives":[
				{
					"attributes":{
						"POSITION":11,
						"NORMAL":12,
						"TEXCOORD_0":13
					},
					"indices":7,
					"material":3
				}
			]
		},
		{
			"name":"Suzanne.003",
			"primitives":[
				{
					"attributes":{
						"POSITION":14,
						"NORMAL":15,
						"TEXCOORD_0":16
					},
					"indices":7,
					"material":4
				}
			]
		}
	],
	"accessors":[
		{
			"bufferView":0,
			"componentType":5126,
			"count":4,
			"max":[
				1,
				0,
				1
			],
			"min":[
				-1,
				0,
				-1
			],
			"type":"VEC3"
		},
		{
			"bufferView":1,
			"componentType":5126,
			"count":4,
			"type":"VEC3"
		},
		{
			"bufferView":2,
			"componentType":5126,
			"count":4,
			"type":"VEC2"
		},
		{
			"bufferView":3,
			"componentType":5123,
			"count":6,
			"type":"SCALAR"
		},
		{
			"bufferView":4,
			"componentType":5126,
			"count":1966,
			"max":[
				1.3671875,
				0.984375,
				0.8515625
			],
			"min":[
				-1.3671875,
				-0.984375,
				-0.8515625
			],
			"type":"VEC3"
		},
		{
			"bufferView":5,
			"componentType":5126,
			"count":1966,
			"type":"VEC3"
		},
		{
			"bufferView":6,
			"componentType":5126,
			"count":1966,
			"type":"VEC2"
		},
		{
			"bufferView":7,
			"componentType":5123,
			"count":2904,
			"type":"SCALAR"
		},
		{
			"bufferView":8,
			"componentType":5126,
			"count":1966,
			"max":[
				1.3671875,
				0.984375,
				0.8515625
			],
			"min":[
				-1.3671875,
				-0.984375,
				-0.8515625
			],
			"type":"VEC3"
		},
		{
			"bufferView":9,
			"componentType":5126,
			"count":1966,
			"type":"VEC3"
		},
		{
			"bufferView":10,
			"componentType":5126,
			"count":1966,
			"type":"VEC2"
		},
		{
			"bufferView":11,
			"componentType":5126,
			"count":1966,
			"max":[
				1.3671875,
				0.984375,
				0.8515625
			],
			"min":[
				-1.3671875,
				-0.984375,
				-0.8515625
			],
			"type":"VEC3"
		},
		{
			"bufferView":12,
			"componentType":5126,
			"count":1966,
			"type":"VEC3"
		},
		{
			"bufferView":13,
			"componentType":5126,
			"count":1966,
			"type":"VEC2"
		},
		{
			"bufferView":14,
			"componentType":5126,
			"count":1966,
			"max":[
				1.3671875,
				0.984375,
				0.8515625
			],
			"min":[
				-1.3671875,
				-0.984375,
				-0.8515625
			],
			"type":"VEC3"
		},
		{
			"bufferView":15,
			"componentType":5126,
			"count":1966,
			"type":"VEC3"
		},
		{
			"bufferView":16,
			"componentType":5126,
			"count":1966,
			"type":"VEC2"
		}
	],
	"bufferViews":[
		{
			"buffer":0,
			"byteLength":48,
			"byteOffset":0,
			"target":34962
		},
		{
			"buffer":0,
			"byteLength":48,
			"byteOffset":48,
			"target":34962
		},
		{
			"buffer":0,
			"byteLength":32,
			"byteOffset":96,
			"target":34962
		},
		{
			"buffer":0,
			"byteLength":12,
			"byteOffset":128,
			"target":34963
		},
		{
			"buffer":0,
			"byteLength":23592,
			"byteOffset":140,
			"target":34962
		},
		{
			"buffer":0,
			"byteLength":23592,
			"byteOffset":23732,
			"target":34962
		},
		{
			"buffer":0,
			"byteLength":15728,
			"byteOffset":47324,
			"target":34962
		},
		{
			"buffer":0,
			"byteLength":5808,
			"byteOffset":63052,
			"target":34963
		},
		{
			"buffer":0,
			"byteLength":23592,
			"byteOffset":68860,
			"target":34962
		},
		{
			"buffer":0,
			"byteLength":23592,
			"byteOffset":92452,
			"target":34962
		},
		{
			"buffer":0,
			"byteLength":15728,
			"byteOffset":116044,
			"target":34962
		},
		{
			"buffer":0,
			"byteLength":23592,
			"byteOffset":131772,
			"target":34962
		},
		{
			"buffer":0,
			"byteLength":23592,
			"byteOffset":155364,
			"target":34962
		},
		{
			"buffer":0,
			"byteLength":15728,
			"byteOffset":178956,
			"target":34962
		},
		{
			"buffer":0,
			"byteLength":23592,
			"byteOffset":194684,
			"target":34962
		},
		{
			"buffer":0,
			"byteLength":23592,
			"byteOffset":218276,
			"target":34962
		},
		{
			"buffer":0,
			"byteLength":15728,
			"byteOffset":241868,
			"target":34962
		}
	],
	"buffers":[
		{
			"byteLength":257596,
			"uri":"many_monkeys.bin"
		}
	]
}
